<?xml version="1.0" encoding="UTF-8" standalone="no"?>
<!-- Created with Inkscape (http://www.inkscape.org/) -->

<svg
        xmlns:dc="http://purl.org/dc/elements/1.1/"
        xmlns:cc="http://creativecommons.org/ns#"
        xmlns:rdf="http://www.w3.org/1999/02/22-rdf-syntax-ns#"
        xmlns:svg="http://www.w3.org/2000/svg"
        xmlns:sodipodi="http://sodipodi.sourceforge.net/DTD/sodipodi-0.dtd"
        xmlns:inkscape="http://www.inkscape.org/namespaces/inkscape"
        xmlns="http://www.w3.org/2000/svg"
        width="256"
        height="256"
        viewBox="0 0 67.733332 67.733335"
        version="1.1"
        id="svg8"
        inkscape:version="0.92.3 (2405546, 2018-03-11)"
        sodipodi:docname="HVIco.svg"
        inkscape:export-filename="C:\Users\Vincent\IdeaProjects\isotope2\Isotope\ico\HVIco.png"
        inkscape:export-xdpi="96.000008"
        inkscape:export-ydpi="96.000008">
    <defs
            id="defs2"/>
    <sodipodi:namedview
            id="base"
            pagecolor="#ffffff"
            bordercolor="#666666"
            borderopacity="1.0"
            inkscape:pageopacity="0.0"
            inkscape:pageshadow="2"
            inkscape:zoom="1.4"
            inkscape:cx="-39.696692"
            inkscape:cy="135.9909"
            inkscape:document-units="mm"
            inkscape:current-layer="layer1"
            showgrid="false"
            inkscape:window-width="1366"
            inkscape:window-height="745"
            inkscape:window-x="-8"
            inkscape:window-y="-8"
            inkscape:window-maximized="1"
            units="px"/>
    <metadata
            id="metadata5">
        <rdf:RDF>
            <cc:Work
                    rdf:about="">
                <dc:format>image/svg+xml</dc:format>
                <dc:type
                        rdf:resource="http://purl.org/dc/dcmitype/StillImage"/>
                <dc:title></dc:title>
            </cc:Work>
        </rdf:RDF>
    </metadata>
    <g
            inkscape:label="Calque 1"
            inkscape:groupmode="layer"
            id="layer1"
            transform="translate(0,-229.26665)">
        <path
                style="fill:#ffff00;stroke-width:1.42857146"
                d=""
                id="path30"
                inkscape:connector-curvature="0"
                transform="scale(0.26458333)"/>
        <path
                style="fill:#ffff00;stroke-width:1.42857146"
                d=""
                id="path32"
                inkscape:connector-curvature="0"
                transform="scale(0.26458333)"/>
        <path
                style="fill:#0055d4;stroke-width:0.1711144"
                d="m 65.00321,288.25262 c -1.999498,-0.7991 -3.731273,-1.24947 -4.804416,-1.24947 -0.826368,0 -0.928738,-0.0471 -1.443279,-0.66413 -0.66514,-0.7976 -2.608637,-1.76151 -3.313197,-1.64321 -0.254057,0.0427 -0.755321,0.20203 -1.113929,0.35416 -0.623893,0.26465 -0.667118,0.26203 -1.00228,-0.0609 -0.213317,-0.20557 -0.350269,-0.56063 -0.350269,-0.90807 0,-0.64159 -0.694396,-1.34788 -1.915315,-1.94811 -0.840711,-0.41332 -1.368953,-0.42435 -2.192762,-0.0457 -0.622823,0.28621 -0.639195,0.28468 -0.953387,-0.0893 -0.175829,-0.20924 -0.408289,-0.79174 -0.516585,-1.29443 -0.164876,-0.76536 -0.327335,-1.02464 -0.998982,-1.59438 -1.00252,-0.85039 -1.454739,-0.96253 -2.46895,-0.61227 -1.753782,0.6057 -2.263666,0.26103 -2.459076,-1.66222 -0.109296,-1.07569 -0.206229,-1.35218 -0.620015,-1.76838 -0.55623,-0.5595 -1.104289,-0.62389 -2.054296,-0.24138 -0.751171,0.30247 -2.054574,0.33048 -2.345201,0.0504 -0.128946,-0.12426 -0.209175,-0.73407 -0.209175,-1.58995 0,-1.31339 -0.02919,-1.42042 -0.540985,-1.98213 -0.643193,-0.70595 -0.860956,-0.72549 -1.93633,-0.17382 -1.066078,0.54689 -1.769006,0.54259 -2.346981,-0.0144 -0.408026,-0.39319 -0.44182,-0.52443 -0.356859,-1.38581 0.05161,-0.5233 0.148961,-1.08434 0.216328,-1.24673 0.149916,-0.36139 -1.094864,-1.63736 -1.59486,-1.63485 -0.179051,8.9e-4 -0.745143,0.18989 -1.257984,0.41995 -1.163757,0.52208 -1.603692,0.52591 -2.09855,0.0183 -0.429706,-0.44079 -0.519751,-1.10611 -0.312569,-2.30944 0.12555,-0.72921 0.09903,-0.81131 -0.42516,-1.31646 -0.740907,-0.71399 -1.1509,-0.84331 -2.308696,-0.72814 -0.932819,0.0928 -0.991214,0.0745 -1.542339,-0.48225 -0.315045,-0.31827 -0.76891,-0.82431 -1.008585,-1.12451 -0.340059,-0.42594 -0.780354,-0.65998 -2.004564,-1.06548 -2.090001,-0.6923 -3.042596,-0.68358 -4.967828,0.0454 -0.814899,0.30858 -1.775781,0.56309 -2.135296,0.5656 -0.399234,0.003 -0.653661,0.0851 -0.653661,0.21159 0,0.35693 -2.2438125,0.92272 -4.0282605,1.01575 -2.050526,0.1069 -3.079382,-0.17204 -4.227815,-1.1462 -2.17458996,-1.84462 -2.56453196,-5.3644 -1.071365,-9.67058 1.225448,-3.5341 2.895325,-6.1018 5.924179,-9.10936 4.2277195,-4.19801 7.6935915,-6.23368 10.6132585,-6.23368 2.465159,0 4.487838,1.09966 5.608316,3.04907 l 0.516387,0.89839 0.0046,4.6194 0.0046,4.61938 0.569809,1.13187 c 0.391162,0.77702 0.823419,1.32998 1.378741,1.76377 0.444915,0.34753 1.195586,0.97204 1.668158,1.38778 0.810615,0.71314 0.943108,0.7668 2.34214,0.94856 1.822866,0.23682 2.663276,0.74174 3.501164,2.1035 l 0.579455,0.94175 1.46709,0.11776 c 1.41928,0.11394 1.494777,0.14177 2.317189,0.85433 1.22168,1.0585 1.346914,1.44519 1.104571,3.41072 -0.39367,3.19291 -0.885425,4.3951 -2.678978,6.54932 -0.654455,0.78606 -1.18986,1.47209 -1.189791,1.52452 6.5e-5,0.0525 0.196162,0.10623 0.435775,0.11956 0.283054,0.0157 0.43565,-0.0645 0.43565,-0.22892 0,-0.13922 0.358639,-0.7129 0.796978,-1.27484 0.438338,-0.56193 0.999033,-1.366 1.245992,-1.78682 0.246954,-0.4208 0.571376,-0.95408 0.720936,-1.18506 0.149557,-0.23095 0.251663,-0.57761 0.226913,-0.77033 -0.02477,-0.19271 0.117731,-0.74827 0.316632,-1.23455 0.1989,-0.48629 0.343863,-1.13853 0.322133,-1.44943 -0.02172,-0.31089 0.0064,-0.60949 0.06247,-0.66353 0.05608,-0.0541 0.631766,-0.009 1.279293,0.0993 0.950722,0.15954 1.312189,0.31472 1.878003,0.80623 0.706151,0.61341 1.42819,1.86108 1.615958,2.79236 0.100755,0.49971 0.111943,0.50418 1.337096,0.53341 0.909387,0.0216 1.354569,0.11449 1.686655,0.35156 0.734504,0.52436 1.57301,1.69516 1.779202,2.48426 0.227119,0.86921 0.320344,0.95296 1.460919,1.31234 1.8339,0.57783 2.743597,1.4833 3.40003,3.38421 0.367466,1.06414 0.376141,1.07318 1.273934,1.32863 1.379648,0.39259 2.015042,0.84574 2.418618,1.72496 0.309765,0.67483 0.347447,1.02523 0.279969,2.60342 -0.08513,1.99128 0.147242,2.38948 0.46427,0.79556 0.152199,-0.7652 0.246885,-0.9211 0.587683,-0.96761 0.223439,-0.0305 0.694078,0.12255 1.04586,0.34012 0.351782,0.21757 0.796484,0.47673 0.988228,0.57588 0.191739,0.0992 0.445509,0.36185 0.563937,0.58374 0.261901,0.49075 0.290853,1.83128 0.03957,1.83128 -0.0995,0 -0.158332,-0.19996 -0.130736,-0.44433 0.02924,-0.25911 -0.04824,-0.47744 -0.185924,-0.52378 -0.185167,-0.0623 -0.216443,0.0969 -0.14499,0.73828 0.05011,0.44975 0.165102,1.1201 0.255541,1.48966 l 0.164433,0.67191 0.203979,-0.5141 0.203978,-0.51408 1.29263,1.19811 c 0.98053,0.90882 1.37934,1.41825 1.65172,2.10987 0.19749,0.50147 0.59381,1.2444 0.8807,1.65094 0.52434,0.74303 0.63308,1.02721 0.3909,1.02152 -0.0719,-0.002 -0.79747,-0.26954 -1.61237,-0.59521 z m -3.30997,-2.97124 c 0.367019,-0.58009 0.462595,-1.30183 0.172397,-1.30183 -0.09587,0 -0.174311,0.10983 -0.174311,0.24406 0,0.13424 -0.09204,0.43874 -0.204541,0.67668 -0.143704,0.30393 -0.244607,0.37014 -0.339243,0.22258 -0.09918,-0.15464 -0.166855,-0.12928 -0.25663,0.0962 -0.07511,0.18862 -0.0285,0.36322 0.121356,0.45465 0.328701,0.20057 0.292734,0.2213 0.680972,-0.39232 z m -4.359657,-2.64565 c 0,-0.0924 -0.07844,-0.16797 -0.174312,-0.16797 -0.09587,0 -0.174307,0.0755 -0.174307,0.16797 0,0.0924 0.07844,0.16798 0.174307,0.16798 0.09587,0 0.174312,-0.0755 0.174312,-0.16798 z m 1.04586,-1.62182 c 0,-0.38433 -0.348148,-0.249 -0.527247,0.20495 -0.243025,0.61599 -0.214506,0.66786 0.178624,0.32502 0.191744,-0.16722 0.348623,-0.40571 0.348623,-0.52997 z m -6.364729,-2.55166 c -0.140074,-0.13463 -0.958284,0.75419 -0.951173,1.03326 0.0028,0.11034 0.243712,-0.0522 0.53534,-0.36135 0.291623,-0.30907 0.478755,-0.61143 0.415833,-0.67191 z m 5.49318,-0.34394 c 0,-0.0825 -0.117661,-0.19352 -0.261467,-0.2467 -0.265696,-0.0983 -0.356984,0.0807 -0.145258,0.28471 0.166587,0.16054 0.406725,0.1381 0.406725,-0.0381 z m -10.80721,-1.02585 c 0,-0.0924 -0.117658,-0.16798 -0.261463,-0.16798 -0.143806,0 -0.261468,0.0756 -0.261468,0.16798 0,0.0924 0.117662,0.16798 0.261468,0.16798 0.143805,0 0.261463,-0.0755 0.261463,-0.16798 z m 6.449463,-0.6719 c 0,-0.0924 -0.07844,-0.16799 -0.174307,-0.16799 -0.09587,0 -0.174312,0.0757 -0.174312,0.16799 0,0.0924 0.07844,0.16798 0.174312,0.16798 0.09587,0 0.174307,-0.0757 0.174307,-0.16798 z m -6.34298,-0.96079 c -0.149492,-0.14355 -0.80372,0.54801 -0.80372,0.84961 0,0.10314 0.211546,-0.0163 0.470108,-0.26551 0.258557,-0.24915 0.408685,-0.51201 0.333612,-0.5841 z m 4.599883,-0.30895 c 0,-0.13314 -0.07844,-0.24206 -0.174312,-0.24206 -0.09587,0 -0.174307,0.15564 -0.174307,0.34587 0,0.19023 0.07844,0.29915 0.174307,0.24206 0.09587,-0.0571 0.174312,-0.21274 0.174312,-0.34587 z m -3.486195,0.0939 c 0,-0.0924 -0.07844,-0.16798 -0.174311,-0.16798 -0.09587,0 -0.174312,0.0757 -0.174312,0.16798 0,0.0924 0.07844,0.16797 0.174312,0.16797 0.09587,0 0.174311,-0.0756 0.174311,-0.16797 z m 5.752222,-1.51181 c 0,-0.7839 -0.07263,-1.34382 -0.174312,-1.34382 -0.101678,0 -0.174307,0.55992 -0.174307,1.34382 0,0.7839 0.07263,1.34383 0.174307,1.34383 0.101683,0 0.174312,-0.55993 0.174312,-1.34383 z m -5.438467,0.97427 c 0.251764,-0.24261 0.281343,-0.70112 0.03579,-0.55488 -0.249449,0.14858 -0.563296,0.75646 -0.390552,0.75646 0.08007,0 0.239709,-0.0908 0.354752,-0.20158 z m 3.990779,-0.76609 c 0.05147,-0.36983 0.0084,-0.81362 -0.09561,-0.98621 -0.166799,-0.27667 -0.190046,-0.25417 -0.196415,0.19011 -0.0041,0.27716 -0.05579,0.80629 -0.115158,1.17584 -0.08372,0.52119 -0.06066,0.62938 0.102831,0.48229 0.115923,-0.1043 0.252881,-0.49221 0.304356,-0.86203 z m -0.644028,0.29575 c 0,-0.18477 -0.07844,-0.33595 -0.174311,-0.33595 -0.09587,0 -0.174312,0.15118 -0.174312,0.33595 0,0.18478 0.07844,0.33596 0.174312,0.33596 0.09587,0 0.174311,-0.15118 0.174311,-0.33596 z m -10.189958,-0.68307 c 0.187607,-0.29253 -0.02606,-0.35448 -0.265134,-0.0768 -0.137487,0.15964 -0.150714,0.25602 -0.03514,0.25602 0.10195,0 0.237067,-0.0806 0.300261,-0.17915 z m 7.701003,-0.74623 c 0.03016,-0.6563 0.0032,-0.7563 -0.125109,-0.46045 -0.09002,0.20788 -0.283848,0.37797 -0.430743,0.37797 -0.294865,0 -0.312348,0.0719 -0.155008,0.63804 0.06582,0.23681 0.216541,0.36612 0.389815,0.33444 0.209019,-0.0382 0.292531,-0.26972 0.321045,-0.89 z m -7.532894,-0.0835 c 0.174058,-0.18534 0.265133,-0.38645 0.202396,-0.44691 -0.127111,-0.1225 -0.813446,0.41914 -0.813446,0.64195 0,0.24522 0.282178,0.15516 0.61105,-0.19504 z m 0.957736,-1.39486 c 0,-0.0924 -0.156875,-0.0311 -0.348619,0.13606 -0.191739,0.16722 -0.348619,0.37962 -0.348619,0.47201 0,0.0924 0.15688,0.0311 0.348619,-0.13605 0.191744,-0.16723 0.348619,-0.37964 0.348619,-0.47202 z m 6.972393,-1.02588 c 0,-0.33285 -0.475744,-0.45869 -0.595656,-0.15754 -0.05587,0.1403 -0.101291,0.53238 -0.100931,0.87128 l 9.22e-4,0.61618 0.347969,-0.55 c 0.191338,-0.30249 0.347922,-0.65345 0.347922,-0.77992 z m -2.443004,0.18615 c -0.0018,-0.51642 -0.04769,-0.63686 -0.171642,-0.45203 -0.225814,0.33674 -0.225814,1.39433 0,1.25984 0.09587,-0.0571 0.173108,-0.42061 0.171642,-0.80781 z m -3.832148,0.30388 c 0.121047,-0.14056 0.139923,-0.25197 0.0427,-0.25197 -0.09587,0 -0.271959,0.11338 -0.391304,0.25197 -0.121047,0.14055 -0.139922,0.25196 -0.0427,0.25196 0.09587,0 0.271959,-0.11339 0.391309,-0.25196 z m 6.664745,-0.9604 c -0.180021,-0.36009 -0.192408,-0.34814 -0.203485,0.19609 -0.009,0.44175 0.03657,0.53291 0.191684,0.38344 0.15046,-0.14499 0.153531,-0.29601 0.01181,-0.57953 z m -6.399113,0.19185 c 0.06315,-0.19174 0.06417,-0.39744 0.0023,-0.45708 -0.130639,-0.1259 -0.435627,0.28745 -0.439547,0.59571 -0.0041,0.34044 0.312583,0.23996 0.437278,-0.13863 z m -5.146305,-0.0713 c -0.11935,-0.13858 -0.295437,-0.25196 -0.391309,-0.25196 -0.09724,0 -0.07836,0.11142 0.0427,0.25196 0.11935,0.13859 0.295437,0.25197 0.391309,0.25197 0.09723,0 0.07836,-0.11142 -0.0427,-0.25197 z m 10.978848,-1.21783 c 0.0014,-0.11548 -0.07577,-0.20998 -0.171642,-0.20998 -0.09587,0 -0.173108,0.20788 -0.171641,0.46194 0.0023,0.35998 0.03998,0.40632 0.171641,0.20998 0.09294,-0.13858 0.170175,-0.34645 0.171642,-0.46194 z m -9.061444,0.12598 c 0,-0.0924 -0.07844,-0.16798 -0.174307,-0.16798 -0.09587,0 -0.174311,0.0756 -0.174311,0.16798 0,0.0924 0.07844,0.16798 0.174311,0.16798 0.09587,0 0.174307,-0.0755 0.174307,-0.16798 z m 4.199955,-2.24461 c 0.185726,-1.27938 0.153426,-1.83864 -0.0925,-1.60165 -0.108365,0.10444 -0.624078,3.26345 -0.607038,3.71847 0.02845,0.75952 0.480623,-0.6088 0.699538,-2.11682 z m -2.562658,0.80307 c 0.05819,-0.14614 0.09649,-0.65638 0.0851,-1.13385 l -0.02071,-0.86815 -0.224025,0.8399 c -0.12321,0.46194 -0.231551,0.97215 -0.240756,1.13385 -0.02085,0.36648 0.257875,0.38615 0.400393,0.0283 z m 3.015556,-1.2009 c -0.04418,-0.16345 -0.08326,-0.0704 -0.08682,0.20678 -0.0037,0.27716 0.03261,0.41086 0.08035,0.29715 0.04775,-0.11373 0.05065,-0.3405 0.0065,-0.50393 z m -11.930284,-0.0778 c -0.21038,-0.20273 -0.435088,-0.31795 -0.499347,-0.25602 -0.169593,0.16344 0.275639,0.62465 0.603003,0.62465 0.224113,0 0.203761,-0.0725 -0.103656,-0.36863 z m -0.07917,-3.11836 c 0.315973,-0.57218 0.704464,-1.11042 0.863317,-1.19609 0.226165,-0.12198 0.24457,-0.20715 0.08484,-0.39262 -0.27533,-0.31969 -0.0762,-1.47543 0.254213,-1.47543 0.138419,0 0.22985,-0.13095 0.205251,-0.29396 -0.0244,-0.16168 0.01559,-0.46523 0.08881,-0.67455 0.1399,-0.3998 -0.164322,-1.55116 -0.409852,-1.55116 -0.203452,0 -0.353267,0.44662 -0.356776,1.06361 -0.0099,1.74719 -1.06564,4.4408 -2.412282,6.1549 -0.397248,0.50566 -0.71941,0.99699 -0.715914,1.09186 0.01314,0.35674 1.846989,-1.72804 2.398391,-2.72656 z m 1.952997,1.97519 c 0,-0.0924 -0.07844,-0.16798 -0.174307,-0.16798 -0.09587,0 -0.174311,0.0757 -0.174311,0.16798 0,0.0923 0.07844,0.16797 0.174311,0.16797 0.09587,0 0.174307,-0.0757 0.174307,-0.16797 z m 7.114018,-0.32556 c 0.04358,-0.12598 -0.02177,-0.18896 -0.152522,-0.14696 -0.125829,0.0403 -0.263095,0.17269 -0.305038,0.29394 -0.04358,0.12599 0.02177,0.18898 0.152521,0.14698 0.125829,-0.0403 0.263096,-0.17269 0.305039,-0.29396 z m -1.013173,-0.33653 c 0,-0.087 -0.07844,-0.20478 -0.174312,-0.26188 -0.09587,-0.0571 -0.174307,0.014 -0.174307,0.15806 0,0.14404 0.07844,0.26189 0.174307,0.26189 0.09587,0 0.174312,-0.0711 0.174312,-0.15807 z m -5.403603,-0.68183 c 0,-0.0924 -0.07844,-0.16797 -0.174307,-0.16797 -0.09587,0 -0.174312,0.0756 -0.174312,0.16797 0,0.0924 0.07844,0.16798 0.174312,0.16798 0.09587,0 0.174307,-0.0757 0.174307,-0.16798 z m 1.358074,-1.66937 c -0.04238,-0.91754 -0.104473,-1.10866 -0.376436,-1.15865 -0.223315,-0.0411 -0.283691,0.006 -0.19208,0.14843 0.07348,0.11457 0.123486,0.73611 0.111122,1.3812 -0.01236,0.64508 0.02818,1.25184 0.09006,1.34834 0.213755,0.3333 0.417991,-0.62264 0.367337,-1.71932 z m -9.376325,0.15758 c 0,-0.0924 -0.07844,-0.16798 -0.17431,-0.16798 -0.09587,0 -0.17431,0.0757 -0.17431,0.16798 0,0.0924 0.07844,0.16798 0.17431,0.16798 0.09587,0 0.17431,-0.0757 0.17431,-0.16798 z m -1.247234,-0.87747 c 0.195684,-0.29784 0.320736,-0.5753 0.277894,-0.61658 -0.125275,-0.12072 -0.948067,0.69108 -0.948067,0.93541 0,0.38605 0.301186,0.24276 0.670173,-0.31883 z m 1.333145,-0.57314 c 0.194154,-0.1871 0.22829,-0.32953 0.106992,-0.44642 -0.214227,-0.20644 -0.715832,0.13676 -0.715832,0.48978 0,0.31068 0.260713,0.29211 0.60884,-0.0434 z m -15.076554,-0.22919 c 0,-0.0924 -0.07844,-0.16798 -0.17431,-0.16798 -0.09587,0 -0.174309,0.0757 -0.174309,0.16798 0,0.0924 0.07844,0.16798 0.174309,0.16798 0.09587,0 0.17431,-0.0757 0.17431,-0.16798 z m 23.183205,0 c 0,-0.0924 -0.07844,-0.16798 -0.174311,-0.16798 -0.09587,0 -0.174307,0.0757 -0.174307,0.16798 0,0.0924 0.07843,0.16798 0.174307,0.16798 0.09587,0 0.174311,-0.0757 0.174311,-0.16798 z m -3.834919,-1.25925 c 0.16929,-1.00236 0.08589,-1.76434 -0.193104,-1.76434 -0.08548,0 -0.156095,0.28345 -0.15693,0.62991 -9.22e-4,0.34646 -0.05016,1.04566 -0.109624,1.5538 -0.148177,1.26632 0.233825,0.9178 0.459658,-0.41937 z m -3.26909,0.5096 c 0.369453,-0.48969 0.250861,-0.86487 -0.316772,-1.00215 -0.232739,-0.0563 -0.423162,-0.1765 -0.423162,-0.26714 0,-0.0906 -0.07844,-0.16476 -0.17431,-0.16476 -0.189664,0 -0.239567,1.15245 -0.06851,1.58204 0.15436,0.38765 0.633008,0.31556 0.982749,-0.14799 z m -1.289699,-0.43132 c 0.05266,-0.34812 0.02501,-0.37051 -0.217888,-0.17624 -0.328927,0.26308 -0.373933,0.74368 -0.06032,0.64415 0.119837,-0.0381 0.245031,-0.24859 0.278206,-0.46791 z m 2.641482,-0.24684 c 0,-0.13858 -0.07844,-0.25196 -0.174307,-0.25196 -0.09587,0 -0.174312,0.11338 -0.174312,0.25196 0,0.13858 0.07844,0.25197 0.174312,0.25197 0.09587,0 0.174307,-0.11339 0.174307,-0.25197 z m -1.743096,-1.2804 c 0,-0.29786 -0.04302,-0.32212 -0.261466,-0.14741 -0.143805,0.11502 -0.261465,0.27545 -0.261465,0.35652 0,0.0811 0.11766,0.14742 0.261465,0.14742 0.150287,0 0.261466,-0.1516 0.261466,-0.35653 z m -14.401689,-0.5928 c 0.254203,-0.24497 0.427944,-0.4784 0.386092,-0.51873 -0.102454,-0.0987 -1.149357,0.65523 -1.149357,0.82773 0,0.25785 0.301857,0.13564 0.763265,-0.309 z m 1.328453,0.27742 c 0,-0.0924 -0.11766,-0.16798 -0.261465,-0.16798 -0.143806,0 -0.261464,0.0757 -0.261464,0.16798 0,0.0924 0.117658,0.16797 0.261464,0.16797 0.143805,0 0.261465,-0.0757 0.261465,-0.16797 z m 3.259461,-1.78629 c -0.136578,-0.13163 -1.690673,1.42796 -1.690673,1.69664 0,0.0933 0.408072,-0.22362 0.906827,-0.70426 0.498753,-0.48062 0.851484,-0.9272 0.783846,-0.99238 z m -2.213602,0.94639 c 0,-0.0924 -0.07844,-0.16798 -0.17431,-0.16798 -0.09587,0 -0.174309,0.0757 -0.174309,0.16798 0,0.0924 0.07844,0.16798 0.174309,0.16798 0.09587,0 0.17431,-0.0756 0.17431,-0.16798 z m -8.5063195,-0.20157 c -0.162689,-0.15678 -0.255655,-0.15678 -0.418344,0 -0.162688,0.15678 -0.116206,0.20157 0.209172,0.20157 0.325378,0 0.371862,-0.0448 0.209172,-0.20157 z m 2.3799355,-1.72123 1.107473,-1.81101 0.603543,0.0944 c 0.425039,0.0665 0.583268,0.0348 0.534995,-0.10682 -0.0377,-0.11067 -0.352871,-0.22446 -0.700379,-0.25287 -0.568879,-0.0465 -0.686428,0.0205 -1.179771,0.67191 -0.7466212,0.98594 -1.9856865,3.37978 -1.7023335,3.28888 0.12595,-0.0404 0.727361,-0.88842 1.3364725,-1.88447 z m -3.1120375,1.38167 c 0,-0.10194 0.229373,-0.53212 0.509716,-0.95596 0.741769,-1.12142 1.148139,-2.17977 0.921006,-2.39865 -0.24923,-0.24018 -1.082101,-0.0231 -1.082101,0.28217 0,0.14742 0.103157,0.20533 0.261464,0.14679 0.15434,-0.0571 0.258934,-0.003 0.255288,0.13126 -0.0081,0.29972 -0.502557,1.13047 -0.510575,0.85786 -0.01273,-0.4329 -0.331386,-0.18905 -0.439001,0.33595 -0.06155,0.30026 -0.194371,0.75244 -0.295165,1.00486 -0.200876,0.50302 -0.07465,1.05148 0.203828,0.88563 0.09655,-0.0575 0.17554,-0.18796 0.17554,-0.28991 z m 21.4401075,-0.29876 c 0,-0.18476 -0.07844,-0.33596 -0.174309,-0.33596 -0.09587,0 -0.17431,0.1512 -0.17431,0.33596 0,0.18479 0.07844,0.33597 0.17431,0.33597 0.09587,0 0.174309,-0.15118 0.174309,-0.33597 z m 0.187938,-1.22989 c -0.134377,-0.1295 -0.187938,-0.036 -0.187938,0.32842 0,0.66309 0.244587,0.90043 0.318669,0.30921 0.03146,-0.25109 -0.02737,-0.53803 -0.130731,-0.63763 z m -9.659536,0.18004 c -0.04836,-0.11548 -0.08792,-0.0209 -0.08792,0.20997 0,0.23097 0.03956,0.32545 0.08792,0.20996 0.04836,-0.11546 0.04836,-0.30445 0,-0.41993 z m -2.726592,0.12192 c 0.336832,-0.39112 0.09649,-0.46482 -0.263994,-0.081 -0.174056,0.18536 -0.235471,0.33699 -0.136482,0.33699 0.09899,0 0.279204,-0.11521 0.400476,-0.25602 z m 3.078842,-0.78333 c -0.05564,-0.134 -0.09695,-0.0942 -0.10531,0.10148 -0.0076,0.17708 0.03363,0.2763 0.09155,0.22048 0.05792,-0.0558 0.06411,-0.2007 0.01375,-0.32196 z m -0.293382,0.0315 c 0,-0.0924 -0.117658,-0.16798 -0.261465,-0.16798 -0.143805,0 -0.261464,0.0757 -0.261464,0.16798 0,0.0924 0.117659,0.16798 0.261464,0.16798 0.143807,0 0.261465,-0.0757 0.261465,-0.16798 z m -1.739602,-0.42399 c 0.121271,-0.14081 0.171991,-0.30276 0.112711,-0.35989 -0.126599,-0.122 -0.639136,0.25371 -0.639136,0.46851 0,0.23138 0.284099,0.17276 0.526425,-0.10862 z m -12.5538025,-0.08 c 0,-0.0924 -0.07844,-0.16797 -0.17431,-0.16797 -0.09587,0 -0.174309,0.0757 -0.174309,0.16797 0,0.0924 0.07844,0.16798 0.174309,0.16798 0.09587,0 0.17431,-0.0756 0.17431,-0.16798 z m 15.0049005,-0.16797 c 0.08803,0 0.160054,-0.16041 0.160054,-0.35645 0,-0.32937 -0.02905,-0.33785 -0.382644,-0.11161 -0.485743,0.31082 -0.659424,0.73503 -0.236969,0.57881 0.164729,-0.0609 0.371529,-0.11075 0.459559,-0.11075 z m -14.3790065,-0.4607 c -0.120883,-0.11649 -0.451583,0.1202 -0.451583,0.3232 0,0.11139 0.100015,0.0986 0.265677,-0.0338 0.146121,-0.11687 0.22978,-0.24707 0.185906,-0.28935 z m 1.03533,-1.01802 c -0.117124,-0.11287 -0.615365,0.3061 -0.615365,0.51745 0,0.0954 0.15736,0.0362 0.349688,-0.13152 0.192329,-0.16774 0.311884,-0.3414 0.265677,-0.38593 z m 6.5313375,0.20209 c 0,-0.43198 1.129754,-1.41101 1.628225,-1.41101 0.243605,0 0.491397,-0.0757 0.550647,-0.16798 0.195404,-0.30468 -1.028366,-0.177 -1.61671,0.16869 -0.707334,0.41558 -1.261518,1.67906 -0.736472,1.67906 0.09587,0 0.17431,-0.12094 0.17431,-0.26876 z m 7.146702,-0.15118 c 0,-0.13858 -0.07844,-0.25197 -0.174309,-0.25197 -0.09587,0 -0.17431,0.11339 -0.17431,0.25197 0,0.13858 0.07844,0.25196 0.17431,0.25196 0.09587,0 0.174309,-0.11338 0.174309,-0.25196 z m 0.87155,-0.25197 c 0,-0.0924 -0.07844,-0.16798 -0.17431,-0.16798 -0.09587,0 -0.174311,0.0756 -0.174311,0.16798 0,0.0924 0.07844,0.16798 0.174311,0.16798 0.09587,0 0.17431,-0.0757 0.17431,-0.16798 z M 8.9498665,251.44734 c 0.136107,-0.34182 -0.17362,-0.55335 -0.815226,-0.55679 -0.579602,-0.003 -0.615606,0.22236 -0.09195,0.57582 0.498772,0.33665 0.76778,0.33102 0.907173,-0.019 z m 11.6043475,-0.73726 c 0,-0.19022 -0.07844,-0.29915 -0.174309,-0.24205 -0.09587,0.0571 -0.17431,0.21274 -0.17431,0.34587 0,0.13313 0.07844,0.24205 0.17431,0.24205 0.09587,0 0.174309,-0.15564 0.174309,-0.34587 z m 0.454553,-0.90166 c -0.06192,-0.23773 -0.18952,-0.43224 -0.283563,-0.43224 -0.193316,0 -0.226568,0.50485 -0.06069,0.92142 0.174229,0.43755 0.474489,0.0109 0.344252,-0.48918 z m -3.69575,-0.97946 c 0.815013,-1.58257 0.938572,-1.97245 0.62509,-1.97245 -0.09667,0 -0.483106,0.64107 -0.85874,1.42459 -0.824691,1.72019 -0.958794,2.10294 -0.7368,2.10294 0.09327,0 0.529978,-0.69979 0.97045,-1.55508 z m 4.461366,0.81976 c 0,-0.2677 -0.48445,-0.70158 -0.62842,-0.56283 -0.133394,0.12855 0.252355,0.79422 0.460243,0.79422 0.0925,0 0.168177,-0.10413 0.168177,-0.23139 z M 7.3066695,247.40084 c 0,-0.0702 -0.156879,-0.22199 -0.348621,-0.33738 -0.381675,-0.2297 -0.472704,-0.0578 -0.139447,0.26338 0.236102,0.22752 0.488068,0.26573 0.488068,0.074 z m 3.2010715,-1.34223 c -0.01935,-0.25407 -0.04155,-0.51864 -0.04933,-0.58793 -0.02523,-0.22445 -0.5451492,-0.13323 -0.6431382,0.11287 -0.120958,0.30375 0.2238002,0.93699 0.5101342,0.93699 0.129603,0 0.203295,-0.18668 0.182338,-0.46193 z m 5.688729,-0.62992 c 0,-0.23098 -0.07844,-0.41994 -0.17431,-0.41994 -0.09587,0 -0.174309,0.18896 -0.174309,0.41994 0,0.23097 0.07844,0.41994 0.174309,0.41994 0.09587,0 0.17431,-0.18897 0.17431,-0.41994 z m -3.434226,-0.52602 c 0.142831,-0.13764 -0.187603,-0.73381 -0.406724,-0.73381 -0.0925,0 -0.168175,0.18897 -0.168175,0.41994 0,0.39122 0.31575,0.56361 0.574899,0.31387 z m 3.017906,-1.02777 c 0.06732,-0.34645 0.237968,-0.89448 0.379208,-1.21784 0.387931,-0.88813 0.551859,-1.5118 0.397368,-1.5118 -0.216462,0 -1.086363,1.98479 -1.187093,2.70851 -0.118839,0.85382 0.245065,0.87255 0.410517,0.0211 z m 7.214401,0.36803 c 0,-0.14403 -0.07844,-0.21516 -0.174309,-0.15806 -0.09587,0.0571 -0.17431,0.17494 -0.17431,0.26188 0,0.087 0.07844,0.15806 0.17431,0.15806 0.09587,0 0.174309,-0.11784 0.174309,-0.26188 z m -10.66435,-0.54915 c 0.04262,-0.27912 -0.03341,-0.3648 -0.323692,-0.3648 -0.274341,0 -0.350096,0.0735 -0.273587,0.2657 0.05819,0.14614 0.105803,0.34141 0.105803,0.43395 0,0.32375 0.436302,0.0265 0.491476,-0.33485 z m 0.554383,-0.0288 c 0,-0.0924 -0.07844,-0.16798 -0.17431,-0.16798 -0.09587,0 -0.174309,0.0757 -0.174309,0.16798 0,0.0924 0.07844,0.16798 0.174309,0.16798 0.09587,0 0.17431,-0.0757 0.17431,-0.16798 z M 10.618556,242.835 c 0,-0.087 -0.07844,-0.20477 -0.174309,-0.26187 -0.09587,-0.0571 -0.17431,0.014 -0.17431,0.15806 0,0.14404 0.07844,0.26188 0.17431,0.26188 0.09587,0 0.174309,-0.0711 0.174309,-0.15807 z m 3.660506,-1.85766 c 0,-0.0924 -0.07844,-0.16798 -0.174309,-0.16798 -0.09587,0 -0.17431,0.0755 -0.17431,0.16798 0,0.0924 0.07844,0.16798 0.17431,0.16798 0.09587,0 0.174309,-0.0755 0.174309,-0.16798 z"
                id="path36"
                inkscape:connector-curvature="0"/>
    </g>
</svg>
